<svg enable-background="new 0 0 580 580" viewBox="0 0 580 580" xmlns="http://www.w3.org/2000/svg"><path d="m1 221c0-73.666641 0-146.83329 0-219.999951 193.333252-.000016 386.666504-.000016 579.999817-.000033.000061 193.333175.000061 386.666366.000122 579.999618-193.333069.000122-386.666214.000122-579.999647.000244-.000292-119.833222-.000292-239.666534-.000292-359.999878m408.040283-95.042198s.050171-.097756.106568.639862c1.018615.413849 2.037201.827698 2.935577 1.309334 0 0 .069916-.119011.073486.617355 1.656067.810089 3.312104 1.620178 5.578858 2.568588 1.121246.881256 2.242462 1.762512 3.398437 3.389893.997803.476822 1.995575.953644 2.90152 1.484512 0 0 .047546-.095367.073029.652222 1.353637.772217 2.707275 1.544433 4.506347 2.412048.31601.137223.475312.378098.515442 1.462708.989594.490127 1.979218.98024 3.547943 1.621246.813538.85524 1.627045 1.71048 2.418427 3.250076.965393.552796 1.930786 1.105576 3.544555 1.839569 4.776093 4.740845 9.624634 9.411789 14.29657 14.253144 2.214234 2.29454 4.091034 4.914718 6.154877 8.113998 1.040832.754547 2.081665 1.509094 2.987976 2.355835 0 0 .090271-.135773.000946.636658 1.410248 1.439133 2.820496 2.878265 4.724732 4.55069.417816.576217.835662 1.15245 1.231384 2.47705.709198.764466 1.418426 1.528946 2.020172 2.355713 0 0 .061401-.107956.001282.650269 1.022033 1.106643 2.044037 2.213272 2.971069 3.3703 0 0 .055267-.092239.018555.647263.695495.765213 1.390991 1.530426 1.988556 2.347122 0 0 .055877-.095474.015228.648025.702484.759858 1.404999 1.519715 2.002197 2.339798 0 0 .059509-.105713.006104.637589.691528.774628 1.383026 1.549255 1.975677 2.371979 0 0 .057495-.093735.013519.671768 1.054718 1.403915 2.109436 2.807831 3.038849 4.291244 0 0 .07721-.126693-.00888.649842 1.370666 2.097351 2.741302 4.194717 4.007904 6.33992 0 0 .046966-.104477.151092.384216.138214.322739.368012.554794.905792 1.006668 0 0-.023437.377762-.082427 1.160675 1.286621 2.178024 2.573242 4.356049 4.070953 6.853165 0 0-.018494.382141-.081452 1.207855 2.02356 5.916763 4.421174 11.735992 5.994629 17.770126 3.537201 13.565171 6.649353 27.240921 9.971222 40.862686.885193 3.629944 1.903076 7.227509 3.025482 11.577118-.006805.752015-.01358 1.504059-.615325 2.845307.123687 6.765564.28363 13.530762.359405 20.296844.058563 5.232727.011719 10.466645.011719 15.839661-9.737641-2.531159-18.756348-5.183502-27.927216-7.112579-3.844513-.808686-8.304657-2.525452-12.434479 1.568328-.74768.300171-1.495361.600342-2.992309.865754-3.719849.814331-4.212402 1.425323-3.387421 4.626159-.315094.458405-.630188.916809-1.612182 1.450012.09497.689728.189911 1.379426.246276 2.982575-.224273 5.300568-.448547 10.601135-1.465423 16.086029-.404602.833191-1.157227 1.664429-1.161865 2.499847-.076264 13.657776-.105835 27.316559.027679 40.97345.010925 1.120819 1.276306 2.22937 2.166626 4.260773-.008087 15.015686-.016144 30.031402-.697998 45.573059-.167084.460205-.479431.920074-.480408 1.380585-.042633 20.054321-.084411 40.108795.003662 60.162689.004334.990722 1.169953 1.976318 2.03061 3.620361 1.654266 2.381622 3.308502 4.763245 5.003509 7.854859 1.352753.33612 2.705536.672241 4.68338 1.139038.400086.142883.800171.285766 1.402649 1.205749 6.073883.185852 12.147583.383545 18.222778.500061.182679.00354.381623-.841553 1.255616-1.564819 1.439941-.20459 2.879913-.40918 4.414276-.053711.326141.283325.652283.56665.978393.849914.308106-.49298.616211-.9859 1.586304-1.687438 1.113648-.24115 2.227264-.4823 3.437164-.160279.331025.280213.662049.560425.993103.840576.302674-.502685.605378-1.005432 1.489136-1.799926.408386-.137085.816773-.27417 1.468262.181823.650207-.294616 1.300415-.589233 2.436096-1.157837.505737-.188354 1.011475-.376678 1.656372.049347 1.61969-.61325 3.239319-1.226532 5.371948-2.344818 2.46045-.9216 4.920899-1.843231 7.750489-2.202484 2.535583-1.551758 5.071167-3.103485 7.937072-5.168365.914734-.42566 1.829468-.851319 3.123963-.778046.509094-.592865 1.018188-1.18573 1.944702-2.283142 5.919861-4.99823 11.839722-9.99646 18.186279-14.55777.499878-.880188.999817-1.760345 1.671082-3.213623.864746-.802734 1.729492-1.605438 3.341308-2.437561.48523-.993622.970459-1.987244 1.507813-2.894836 0 0-.090942-.043.632934-.106476.448426-.997071.896912-1.994141 1.479615-3.586792.580871-.780243 1.161804-1.560456 2.455017-2.390259 1.46936-3.301483 2.938782-6.602966 4.438598-10.567627.37201-.774322.74408-1.548645 1.815979-2.460449 2.089722-8.057373 4.805542-16.012177 6.145508-24.192352 3.320984-20.273438-.177368-39.625123-9.610412-57.862214-.754517-1.458801-2.27771-2.519989-3.955567-3.967651-.164673-.50708-.329284-1.01413-.439331-2.310089-.742126-.807068-1.484192-1.614136-2.659485-2.562103-.22821-.228882-.337646-.504853-.312317-1.579407-.71936-.771637-1.438781-1.543274-2.697082-2.512604-.427124-.611908-.854309-1.223785-1.293701-2.595428-1.080933-1.060212-2.161865-2.120392-3.784058-3.423798-.75177-.893158-1.503479-1.786285-2.214111-3.485413-.345642-1.463226-.691284-2.926483-1.189575-5.235443.112487-1.712616.224975-3.425232 1.108642-5.343902.0177-6.269043.03534-12.538086-.117126-19.668213.116821-2.041962.233703-4.083893 1.1203-6.334015.186157-6.059876.384644-12.119476.502014-18.180695.003662-.192382-.827148-.40094-1.430603-1.464141-.010132-2.039856-.020264-4.079743.578308-6.693451.150879-3.050049.524109-6.112397.356385-9.144837-.080872-1.462646-1.180176-2.868957-2.034119-4.942383.022583-.446045.045105-.89212.645264-1.845062-.4646-2.170776-.9292-4.341553-1.591187-7.147247-.016907-.43982-.033813-.879669.554932-1.821228-.151001-2.242584-.147034-4.508209-.476441-6.724243-4.031738-27.120484-13.712646-52.307038-26.380127-76.446259-.51947-.989822-1.8656-1.545837-3.342102-2.489929-.134521-.51474-.268982-1.02948-.340027-2.338532-1.065063-1.453445-2.130127-2.90689-3.061706-4.446334 0 0-.081726.136154.026428-.6176-.683472-.797821-1.367004-1.595657-1.953674-2.439484 0 0-.049439.095093-.002014-.648986-.695374-.782868-1.390809-1.565735-2.653199-2.573929-.447906-.897492-.895782-1.794998-1.32901-3.432083-.693878-.774109-1.387756-1.548233-1.992035-2.360215 0 0-.050201.083298-.019653-.659942-.704071-.771546-1.408142-1.543091-2.701965-2.539246-.769837-1.226471-1.539643-2.452942-2.28476-4.444824-1.050873-1.106705-2.101745-2.213425-3.613891-3.442993-.289643-.200562-.421875-.476547-.393952-1.596665-.771209-.741012-1.542419-1.482025-2.835296-2.509979-.717652-.920212-1.435273-1.840439-2.160981-3.513931-.747833-.740738-1.495666-1.481476-2.801361-2.49527-1.06607-1.243637-2.132141-2.487274-3.187957-4.481918-1.739777-1.719284-3.479554-3.438568-5.096192-5.225128 0 0-.067444.123031-.050934-.603165-.711639-.469299-1.423279-.938584-2.716308-1.647461-1.402863-1.536911-2.805725-3.073822-4.20343-5.341194-2.31482-1.839073-4.629639-3.678154-7.545105-5.711731-1.149811-1.195526-2.299592-2.391052-3.475739-4.29966-.931976-.515198-1.863922-1.030403-3.414062-1.69223-1.19986-1.155678-2.39975-2.311356-3.587769-4.24173-1.346588-.825584-2.693176-1.651169-3.94043-2.525215 0 0-.049255.09893-.086364-.628853-.988007-.46447-1.975983-.92894-3.436219-1.470268-.324127-.154129-.488159-.410645-.546173-1.503815-.997375-.471786-1.99472-.943573-3.452576-1.479515-.338623-.113106-.512939-.348106-.554748-1.453956-1.001129-.47754-2.002228-.955071-2.911224-1.480584 0 0-.043885.094147-.093232-.630859-.991546-.446976-1.983062-.893951-2.89273-1.389031 0 0-.037873.087075-.101837-.635765-.996735-.435943-1.99347-.871879-2.90207-1.354568 0 0-.043457.089798-.100738-.634407-.994934-.440323-1.989899-.880653-2.899628-1.36821 0 0-.038971.089272-.106262-.642685-1.01593-.41616-2.031891-.832321-2.941925-1.297752 0 0-.050964.105102-.068695-.637924-1.690125-.790032-3.380219-1.580071-5.635285-2.403252-.416961-.3172-.833953-.6344-1.338165-1.679176-1.695984-.73227-3.391937-1.464531-4.9599-2.27462 0 0-.080139.126586-.072693-.591691-.951416-.835456-1.785614-1.888084-2.871612-2.474128-19.535401-10.542038-40.216675-18.168896-61.672028-23.668583-4.270569-1.094677-8.86795-.914334-13.983764-1.260563-.440277-.075928-.880524-.151856-1.491913-.950005-5.389252-2.528927-10.949158-3.678306-17.595612-2.00074-.744446-.092945-1.488891-.18589-2.431488-1.030655-4.288635-.706104-8.578857-2.017967-12.865631-2.006836-13.886108.036057-27.778656.386647-41.650848 1.012543-3.46167.156189-6.856079 1.803024-10.916779 2.962277-.441238.009094-.882492.018188-1.829391-.572579-3.543015.340359-7.124665.456196-10.622666 1.05814-20.089508 3.457046-39.314117 9.828716-58.072204 17.664238-1.811097.756523-3.23642 2.436584-5.157486 3.90078 0 0-.380967-.020951-1.199814-.085312-1.789276 1.041351-3.578552 2.082695-5.406571 3.02433 0 0 .097504.043991-.378372.149513-.315414.131737-.545395.352486-1.251587.940346-.737213.308235-1.474426.61647-2.710586 1.049736-.243088.232941-.486176.465889-1.049973.919105 0 0-.388504-.020751-1.178161-.075775-2.151154 1.36509-4.302308 2.730179-6.697358 4.647393-.570999.17733-1.142013.354667-2.066589-.014542-1.550888 1.150658-3.101776 2.301315-4.70581 3.353607 0 0 .098098.053642-.667618.005165-1.406861 1.053482-2.813721 2.106964-4.294953 3.038956 0 0 .122773.07222-.634964-.007233-.78894.706696-1.577865 1.413384-2.645111 2.720299-2.231064 1.411545-4.462143 2.82309-7.429306 4.232803-.766449.693421-1.532898 1.386841-2.339096 1.992234 0 0 .084595.046615-.670761.016609-.756027.736244-1.512039 1.472481-2.386749 2.650459-.210999.253212-.481201.374657-1.581452.342529-.759948.759583-1.519897 1.519158-2.409065 2.703904-.22348.222046-.492683.329101-1.275886.458336-.316414.13108-.546296.352142-1.321419.927757-4.451599 3.982361-8.903198 7.964714-13.75148 11.462707-.352249.627716-.704499 1.255432-1.155213 1.903206 0 0-.031112.095543-.748733-.176002-1.212586 1.312072-2.425179 2.624138-3.87159 4.534843-1.853805 1.751862-3.707619 3.503716-6.299782 5.2454-1.196891 1.59555-2.393783 3.191116-3.81195 5.429473-3.490189 3.859223-6.980378 7.718461-11.235558 11.581543-.816666 1.350373-1.633324 2.70076-2.534218 4.496476-.118812.32489-.351127.491821-1.447731.532699-.491417 1.002274-.982834 2.004547-1.658035 3.622589-.907661 1.098328-1.815331 2.196656-3.450134 3.36493-.458901.997757-.917809 1.995498-1.517479 3.588333-.599983.776092-1.199967 1.552169-2.327561 2.129409-.616058.177338-1.232116.354676-1.848182.532029.527137.248764 1.054275.497528 1.391433 1.393081-.993606 1.428162-1.98722 2.856324-3.715583 4.365754-.416398 1.019958-.832795 2.039932-1.322625 2.937957 0 0 .120903.075119-.623733.091385-.786411 1.694794-1.572827 3.389603-2.389267 5.646027-.312046.413513-.624088.827041-1.659691 1.311035-1.098801 2.388779-2.197598 4.777542-3.280746 7.55661 0 0-.206315.331665-.615754.621429-.114856.307175-.229713.61435-.404377.805008 0 0 .115513.061722-.610023.06337-.47089.405213-1.170231.717255-1.37912 1.22934-4.687359 11.491318-9.705566 22.867218-13.875805 34.545425-6.538784 18.31102-10.650122 37.343384-11.979763 56.663239-1.174322 17.06308-.285091 34.270477-.177963 51.413391.006235.997864 1.170009 1.988525 1.954508 3.768158.003978 1.065857.007957 2.131714-.591645 3.778717-.128505 4.864319-.257011 9.728638-.602304 15.172241-1.176481 1.12793-2.352961 2.25589-4.27746 3.404572-.51112.983062-1.02224 1.966095-1.611679 3.427948-.171088.314056-.435301.478424-1.517968.558563-.467748.988067-.935497 1.976105-1.459791 3.437164-.129345.33664-.374151.513184-1.495855.584137-.458368 1.040955-.916737 2.081909-1.411465 3.771057-.734928 1.031891-1.469854 2.063782-2.604006 3.369354-.219971.249085-.357182.537507-.446439 1.309052 0 0-.154646.417389-.554034.691406-.220408.249176-.357172.537995-.446868 1.309235 0 0-.154038.416717-.55254.689361-.219257.248322-.357118.535675-.4473 1.303589 0 0-.15371.415192-.838783.551056-5.432443 8.64151-6.420502 18.571869-8.106836 28.284577-.136581.786651.662051 1.735656 1.139582 3.353149-.114891.742096-.229783 1.484222-1.114609 2.432587-.174855 5.736145-.362289 11.472015-.467487 17.209442-.003365.183533.836931.382507 1.524403 1.201141-.010871.44278-.021742.885529-.635321 1.829987.781283 3.18045 1.562565 6.360901 2.515409 10.190185.007257.44513.014514.890229-.5382 1.792511.439558 4.243042.059952 8.797516 4.699181 12.15271.279022.799835.558044 1.599701.329174 2.800537 1.864811 3.17981 3.729623 6.35965 5.504765 9.579102 0 0 .04705-.085999.012003.650757.68796.773041 1.375921 1.546081 1.977848 2.355316 0 0 .047739-.08017.021074.660095.702172.75766 1.404341 1.51532 2.008959 2.314636 0 0 .049725-.093689-.000582.673279 1.055077 1.100434 2.110152 2.200897 3.764796 3.573486 4.093483 4.18155 8.186966 8.363099 12.312362 13.288697.992615.493316 1.98523.986633 3.452847 1.554016.322586.159515.48489.419189.541221 1.509247.990101.473907 1.980198.947845 3.616574 1.592163 1.765587 1.254333 3.531173 2.508667 5.377483 4.487518 1.679535.755585 3.35907 1.511139 4.943375 2.315796 0 0 .041218-.098877.076801.62851 6.969284 2.733917 13.934734 5.477874 20.927799 8.149505.194657.074341.68544-.626404 1.687172-.921997.418915.11023.83783.220459 1.428635 1.065796 6.145241 1.046326 12.267891 2.283936 18.45047 3.01416 1.696457.20044 3.572288-1.117981 6.226799-1.892578 2.037292-.023254 4.074592-.046509 6.572815.501465 1.197273-.627197 2.394546-1.254395 3.992996-2.38794 5.04129-2.397522 7.133644-6.491668 7.05246-11.953582-.106209-7.145356-.163018-14.292786-.125428-21.438721.155594-29.577087.354798-59.1539 1.181015-88.179627.161118 1.785645.455849 3.570801.462044 5.356965.046364 13.364135.035706 26.728424.020935 40.957305.007233 1.726838.014466 3.453644.011162 6.11493v55.80365c.325485-.001587.650978-.003174.976463-.004761 0-18.918244 0-37.836456.001389-57.612457-.000465-1.714844-.000923-3.429657-.001282-6.081665.00026-18.020569.000511-36.041138.001732-54.993958-.000427-4.689239-.000854-9.378509-.001366-15.004822-.000274-6.687225-.000549-13.374481.000603-20.990112 0-3.948944 0-7.897858 0-11.846802-.321548.002808-.643089.005585-.964638.008393 0 4.263214 0 8.526428-.012146 13.723602.004158 6.672699.008324 13.345367-.005752 20.812439-.390381 1.418304-.780762 2.836639-1.445923 3.467071-.17408-12.123748-.359406-24.247345-.51857-36.371307-.120888-9.20816-6.115356-15.274689-15.216614-13.903137-9.67276 1.457641-19.149917 4.213165-28.847732 5.580108-.366829-1.750824-.343773-3.735015-1.212029-5.18576-.839523-1.402771-2.597-2.256195-4.198066-4.261627-.750275-33.259339 3.289123-65.69899 17.587898-96.141724 4.101768-8.732834 9.537079-16.83934 14.648872-24.64093.403656.38945.80732.778915 1.210968 1.168365.14016-.220306.426247-.612335.398926-.635559-.546738-.464584-1.129585-.886673-1.707138-2.019394 1.045784-1.647705 2.013962-3.351028 3.149216-4.934585 13.024635-18.167908 27.608505-34.90326 45.50444-48.443238.8461-.896316 1.6922-1.792648 2.667511-3.134277.216553-.253769.491531-.374939 1.581726-.349457.763535-.733841 1.527069-1.467682 2.426132-2.653534.222031-.260559.503662-.377075 1.58458-.343673.758682-.703369 1.517379-1.406723 2.320572-2.010239 0 0-.093934-.055893.651245-.010941.764129-.701232 1.528274-1.402465 2.342422-2.001388 0 0-.099808-.05484.64354-.001572.775543-.691482 1.551086-1.38295 2.37622-1.981033 0 0-.093582-.04921.673538-.0047 3.078324-2.047256 6.156662-4.09452 9.292664-6.034149 0 0-.108475-.056091.666168.014755 2.747406-1.719848 5.494812-3.439689 8.29274-5.050911 0 0-.109482-.048645.384781-.132606.23848-.223366.476959-.446732 1.046616-.879074 0 0 .391204.017265 1.153717.072861 1.507171-.958802 3.014358-1.917603 5.101135-3.257119 1.456345-.612655 2.912689-1.225319 4.442474-1.24218.324341.260582.75821.814187.957337.739762 10.419708-3.894417 20.831436-7.811325 31.203521-11.8303 1.066254-.413147 1.883255-1.469551 3.439301-2.402725.42601-.066917.852005-.133827 1.690048.342354.600907-.388878 1.201798-.777756 2.137116-1.301201.238433.016113.475341.044708 1.544799.612023 7.068268-1.059685 14.153718-2.01941 21.195984-3.230393 2.65448-.456467 5.208924-1.494606 8.453583-2.473259.445984.013313.891968.026627 1.880768.62941 2.934814.158981 6.187591 2.177811 9.124786-1.655945.447907.032074.895783.064148 1.930146.694481 11.784851.808456 23.567749 1.648605 35.357971 2.368835 1.007904.06157 2.064514-.674385 3.764221-1.119468.43454.100395.869049.20079 1.484039 1.036461.349549.331131.66272.899307 1.053864.959327 17.69696 2.715691 34.752746 7.718163 51.416656 14.189484 3.780121 1.467972 7.713929 2.540169 11.438294 3.880249 0 0 .090912-.135353.109466.654533 1.37674.444863 2.75351.889717 4.504425 1.302491 0 0 .300843.224716.589508.640586.310883.114266.621796.228531.819977.394631 0 0 .053986-.111694.039002.609344 3.679382 1.812157 7.358764 3.624321 11.603241 5.487191.423065.314682.846099.629371 1.362396 1.662948 1.00531.421402 2.01062.842804 2.91983 1.31749m-104.084778 74.387291c-.729217-.755142-1.458435-1.510285-2.819061-2.518112-2.716034-1.325547-5.432098-2.651093-8.327057-4.713807-3.773773-1.989151-7.129577-1.807174-10.193542 2.445176-5.188507 3.245407-7.638336 7.804977-7.634003 14.045959.06958 100.12616.055389 200.25238-.45285 300.791535.881469 1.515441 1.762939 3.030914 3.125244 4.670013.303253.216003.424713.507751.388489 1.645935 1.365783 1.06543 2.731598 2.13092 4.007873 3.240417 0 0 .034729-.093566.06015.592164 1.325898.414856 2.651825.82965 4.631928 1.267761.422088.1073.844208.214538 1.409759 1.016052 1.905732 1.83606 3.585205 2.077515 5.471558-.865601.436218-.039611.872406-.079223 1.624023.370667.582123-.418945 1.164246-.837891 2.033173-1.49762 0 0 .371185.049683 1.180176.105652.804107-.78009 1.608185-1.560242 2.650024-2.80841.545777-.406617 1.091553-.813233 2.413056-1.272889.453765-1.068176.907531-2.136352 1.310241-3.577148 0 0 .241486-.288391.832154-.356384.059173-.663086.118316-1.326203.200622-2.731659.092407-.734742.184815-1.469483 1.04715-2.408295.360229-1.192688 1.033874-2.38501 1.03537-3.578155.054565-43.069916.063049-86.139954-.030732-129.209717-.002899-1.331024-1.156829-2.659546-1.931945-4.915955-.054108-15.329285-.136414-30.658569-.156861-45.987884-.052429-39.322968-.077423-78.645935.454316-118.347077-.792511-1.56546-1.585022-3.13092-2.296784-4.72435 0 0-.04483.072754-.032471-.678268m-148.856277 217.5531s.042068-.101989.053604.625641c1.972687.430481 3.945389.860962 6.639847 1.2276.718796.040039 1.437576.080048 2.602905.700837 3.468002.77185 6.200028.015808 7.793228-4.231202 1.552414-1.757263 3.104828-3.514526 5.336243-5.314972.130005-.979644.260025-1.959289.339828-3.608154.089829-.436249.179657-.872528 1.042267-1.50708.361603-.858215 1.037751-1.715851 1.039322-2.574738.056214-30.591918.070084-61.184051-.029739-91.775756-.003739-1.146424-1.198105-2.288971-2.2043-3.98526-.24321-.816071-.48642-1.632172-.264771-2.805451-.526703-.53537-1.053421-1.07077-2.197021-1.848053-2.418594-1.956512-4.837204-3.913055-7.364014-6.534179-.998977-.001832-1.99797-.003693-3.798538.079925-1.338226-.058838-2.676437-.117706-4.384247-.724274-.899521.435791-1.799042.871613-3.231048 1.740509-2.831131 2.879364-5.662262 5.758728-9.16092 8.737915-.031234.996064-.062469 1.992127.095642 3.898011-.026443 1.997619-.073867 3.995239-.076156 5.992889-.033997 29.634064-.062012 59.268128-.679337 89.310211.432572 1.23114.865128 2.462281 1.724289 4.14267.238434.762573.476868 1.525177.835083 2.780487.213944.251465.427887.50293.899994 1.371887 1.30072 1.179932 2.601425 2.359864 4.190048 3.932007.261689.214844.561829.324188.797791.36853m211.85759-164.555084c-.766266-.742706-1.532532-1.485412-2.877106-2.326828-.705933-.634415-1.411835-1.268829-2.192841-2.628921-1.62033-2.243225-3.449981-3.437439-6.776214-1.081604-1.358887-.073853-2.717774-.147705-4.449463-.749039-.884918.445999-1.769806.891998-3.242096 1.672729-2.074066 1.61316-4.148163 3.226319-6.897522 4.864197-.51178 1.300553-1.02359 2.60109-1.500031 4.612686-.382537 1.100373-.765045 2.200775-1.919189 3.504792-.366608 1.191131-1.052612 2.381958-1.053864 3.573486-.053344 50.765137-.060272 101.530365.036011 152.29538.002472 1.306732 1.217438 2.611206 2.083618 4.830291-.026153 5.351136-.052307 10.70224-.702118 16.623749-.134613 5.265167-.496826 10.540344-.266449 15.78949.069977 1.594269 1.776215 3.11673 2.97931 4.937439 0 0-.055054.357849-.114655 1.144226.705811.843964 1.411652 1.687897 2.671143 2.735657.78955.853393 1.579132 1.706756 2.392883 3.320922 5.100098 5.209595 13.59082 4.875245 17.05423-1.259246 1.577301-1.743561 3.154571-3.487152 5.486785-5.33844 3.309113-4.02887 3.132264-8.3862 1.036194-13.824982.144837-9.015717.289673-18.031464 1.202149-27.252441.347534-4.610871.76831-9.218781.956054-13.836152.02533-.623077-1.120788-1.293823-1.879943-2.688507.052032-.756683.104034-1.513366.924987-2.476135.361969-1.028656 1.039246-2.056946 1.040497-3.086059.054352-44.811249.120941-89.622986-.125335-134.432923-.015076-2.741577-2.563172-5.469238-3.847107-8.239212 0 0-.044281.081543-.019928-.684555m46.9263 42.533966c-.625519.347748-1.251068.695496-2.433716 1.456177-2.848816 2.891479-5.697632 5.782959-9.14624 8.753387-.010743.677826-.021515 1.355683-.14679 2.950135.056519 32.938568.113068 65.877136-.350372 99.12207.364715.611084.729431 1.222198 1.320038 2.160645 0 0-.030915.396514.105774.906799.231689.253784.463378.507538 1.108917 1.294617 2.554687 2.178375 5.109375 4.35675 7.74588 7.147186.688232-.002503 1.376465-.005036 2.704559.030548.405426.131103.810822.262207 1.31604 1.039795.961579-.212219 1.923188-.424439 3.480072-.876434.419831-.066712.839691-.133393 1.568329.324951.612854-.372559 1.225739-.745118 2.379761-1.540314 2.848053-2.884369 5.696106-5.768738 9.20166-8.756287.021545-.990844.043121-1.981689-.033783-3.896087-.040863-32.602692-.081726-65.205384.42038-98.113404-.358612-.625579-.717255-1.251159-1.548737-2.374023-2.861084-2.871521-5.722168-5.743042-8.67041-9.221863-.687714.024933-1.375427.049866-2.899323.028229-1.93991.034668-3.879852.069336-6.122039-.436127m-203.534806 10.654755c.187287 4.824982.374558 9.649963-.216598 14.668426-.261856 6.954773-.54451 13.909058-.714401 20.866089-.007279.298035 1.027084.621491 1.789367 1.849365-.112976 29.697846-.225952 59.395661-1.109726 89.295899-.176895 7.06781-.364135 14.135437-.473892 21.204285-.002884.185699.837723.384491 1.561798 1.22348.286362 1.114319.572708 2.228668.386688 3.701446.533036.533753 1.066071 1.067475 2.208832 1.85614 2.409653 1.979248 4.81929 3.958466 7.299408 6.51529.655152.057525 1.310288.115051 2.82312.198791 1.995713-.051391 3.991425-.102783 6.294815.352112.598282-.387695 1.196579-.775391 2.123093-1.386291 0 0 .396011.027069.901657-.099945.253922-.224976.507843-.449952 1.332611-1.02533 1.847412-1.922333 3.69484-3.844635 5.962815-6.06958.130416-.316864.260818-.633698.368026-1.352722 0 0 .219757-.337616.891632-.457062-.054138-1.012695-.108261-2.02536-.227111-3.953034.031631-33.804016.058761-67.608062.096237-101.412078.034149-30.801453.079498-61.602936.616272-92.70514-.358963-.596405-.717926-1.192779-1.276367-2.4346-.01001-.449952-.020035-.899872.477005-1.741471-.886506-1.186584-1.773011-2.373169-3.277649-3.836929-3.649338-4.457016-8.705826-5.277191-14.386475-6.015076-.932495.401627-1.86499.803238-3.238037 1.740219-1.767746 1.17302-4.232453 1.952439-5.162186 3.59874-2.119171 3.752426-3.485763 7.929871-5.982162 13.160126.310501.882416.620987 1.764801 1.024368 3.355957-.007492 2.173492-.014969 4.347015-.995743 7.438385.356919 1.579284.713822 3.158539.979676 4.87445 0 0-.044327.173829-.997681 1.199585.349014 1.233857.698013 2.467713 1.138016 4.488739-.106583 5.47345-.213181 10.9469-1.146958 17.644043.309509.882965.619034 1.765931.92955 3.257691m-136.532646-27.574799c-.092209-.393951-.18441-.787903-.276619-1.181854-.117927.085419-.345154.185852-.335808.253754.055085.399963.165261.792358.612427.9281m21.352791 40.786621c-.052963-.160705-.105934-.321441-.158913-.482147-.052055.16156-.104103.32312.158913.482147m-15.894394-71.921051c.109367.151444.218727.302887.328095.454331-.021454-.209885-.042916-.419785-.328095-.454331m-.853577 2.661728s.103226-.060165 0 0z" fill="#111"/><path d="m11.864349 379.005951s.15371-.415192.426523-.732819c.372873-.631256.472932-.944946.572991-1.258606-.000002 0 .154036-.416717.427124-.737915.373115-.634796.47314-.948425.573167-1.262054.000001 0 .154647-.417389.427537-.737702.372856-.634338.47282-.948364.572779-1.26239.734922-1.031921 1.469848-2.063812 2.515886-3.571014.828001-1.433624 1.344894-2.391937 1.86179-3.35025.360269-.016449.605075-.192993 1.035198-.926361.828634-1.299775 1.356489-2.20282 1.884344-3.105866.357336-.014709.621549-.179077 1.111238-.886444.892771-1.28067 1.466938-2.16803 2.041102-3.055389 1.176475-1.12793 2.352955-2.25589 4.004097-3.865631.560182-5.411744.645702-10.341645.731222-15.271576-.003977-1.065857-.007956-2.131714-.02421-4.054688-.10997-5.514069-.13513-10.173798-.317234-14.827423-1.106182-28.267853-.01721-56.407928 8.515257-83.579971 5.145767-16.386917 11.942859-32.255295 17.997932-48.35669 0 0-.115513-.061722.165894-.10971.365078-.380921.448742-.713852.532409-1.046784 0 0 .206315-.331665.501374-.702438 1.43312-2.66594 2.571186-4.961121 3.709247-7.256302.312043-.413529.624085-.827057 1.254582-1.679062 1.15078-2.0336 1.983116-3.628708 2.815452-5.223801 0 0-.120903-.075119.204567-.154724.794274-1.032944 1.263085-1.986282 1.731903-2.939621.993615-1.428161 1.987229-2.856323 3.300225-4.700683.533149-.676041.648338-.973999.664962-1.310059.599991-.776093 1.199975-1.55217 2.152657-2.774322.865776-1.368119 1.378845-2.290177 1.891922-3.21222.907661-1.098327 1.815331-2.196655 3.107864-3.740326.931237-1.366607 1.477593-2.287887 2.023949-3.209152.345818-.008972.578133-.175903 1.038673-.862472 1.213639-1.620667 2.085564-2.879654 2.957489-4.138642 3.490181-3.859237 6.98037-7.718475 10.870072-12.044876 1.64994-1.962158 2.900368-3.457138 4.150795-4.952118 1.853805-1.751861 3.707619-3.503715 5.980171-5.671592 1.669327-1.559769 2.919891-2.70353 4.170456-3.847283.000008 0 .03112-.095543.307289-.236313.60936-.519867.942543-.898964 1.275719-1.278061 4.451607-3.982368 8.903206-7.964721 13.942604-12.041946.792496-.386589.997192-.678322 1.201897-.970055.314926.007927.584129-.099128 1.180954-.639999 1.184402-1.000305 1.995483-1.681793 2.806549-2.363274.329422.010323.599624-.111122 1.178924-.679634 1.17012-.978584 1.97197-1.641868 2.773804-2.305153 0 0-.084595-.046615.2397-.087616 1.133179-.677124 1.942047-1.313255 2.7509-1.949402 2.231064-1.411544 4.462143-2.823089 7.14151-4.625869 1.283707-1.010689 2.119126-1.63015 2.954545-2.249611 0 0-.122773-.07222.244705-.085922 1.809372-1.001397 3.251281-1.98909 4.693191-2.976784 0 .000007-.098098-.053635.256089-.072876 1.804534-.942101 3.254867-1.864952 4.7052-2.787819.570999-.177338 1.142013-.354675 2.182678-.882103 2.652222-1.647491 4.834778-2.944878 7.017349-4.242271 0 0 .388504.020751.827622-.075921.662689-.380264.886245-.663856 1.109817-.947464.737198-.308235 1.474411-.61647 2.760147-1.03421.758652-.385116.968796-.660736 1.17894-.936355 0-.000008-.097504-.043999.276123-.050118 2.199677-.988693 4.025742-1.971275 5.851791-2.95385 0 0 .380967.020951.906373-.086776 14.386642-5.082749 28.09317-10.563755 42.160537-14.864582 10.312043-3.152714 21.097565-4.756733 31.672074-7.050991.441238-.009091.882492-.018185 2.072769-.065094 8.011246-.701016 15.270309-1.873684 22.536362-1.918892 14.113281-.087799 28.230438.457519 42.346008.740543.744446.092945 1.488891.18589 2.944977.442978 6.159454.962368 11.607269 1.760593 17.055084 2.558819.440277.075927.880524.151855 1.96698.42361 12.191589 3.279065 24.037018 5.545453 35.207641 9.64888 14.502961 5.327549 28.468995 12.116772 42.666138 18.276837 0 .000007.080139-.126579.178986.208908 1.715332 1.112564 3.331817 1.889641 4.948303 2.666702.416962.317207.833954.634407 1.689911 1.274292 2.030639 1.156319 3.622345 1.989952 5.21402 2.823593 0 0 .050964-.105102.14328.215531 1.033844.783439 1.975372 1.246254 2.9169 1.709076 0 0 .038971-.089272.127716.222732 1.015229.801468 1.941681 1.290939 2.868164 1.780411 0 0 .043457-.089798.126587.225174 1.016388.797455 1.949646 1.279945 2.882904 1.762436 0 0 .037873-.087075.128266.225845 1.010833.808983 1.931274 1.305054 2.851684 1.801117 0 0 .043885-.094147.130524.223084 1.009888.848922 1.933166 1.380615 2.856415 1.912315.009979.356888.184295.591888.899231 1.021545 1.294342.843445 2.212372 1.370346 3.130371 1.89724.003906.358894.167938.61541.871429 1.089249 1.284241.839256 2.189087 1.358802 3.093964 1.878341 0 0 .049255-.09893.137085.225922 1.338806 1.20826 2.589783 2.09166 3.840759 2.975052 1.19986 1.155685 2.39975 2.311363 4.063477 3.805969 1.301452.914742 2.139007 1.490563 2.976562 2.066391 1.14978 1.195519 2.299561 2.391045 3.89032 3.98661 2.660278 2.280747 4.879639 4.161461 7.098999 6.042168 1.402863 1.536896 2.805725 3.073807 4.61969 5.017121 1.036957.926696 1.662811 1.44699 2.288696 1.967269 0-.000015.067444-.123046.125305.222046 1.7146 2.107086 3.371338 3.869065 5.028077 5.631058 1.06607 1.243622 2.132141 2.487259 3.588256 4.166031 1.066498 1.227875 1.742951 2.020645 2.419404 2.813415.71762.920212 1.435241 1.840439 2.523986 3.208588 1.067902 1.242218 1.764679 2.036484 2.461487 2.830765-.025207.351395.107025.62738.736664 1.199478 1.309692 1.526642 2.279449 2.681763 3.249176 3.836868.769836 1.226471 1.539642 2.452942 2.701813 4.095475 1.021271 1.232833 1.650177 2.049621 2.279083 2.866424 0 0 .050201-.083298.085663.244324.670929 1.142471 1.306427 1.957336 1.941894 2.772186.447907.897492.895783 1.794998 1.715149 3.113388.992432 1.246292 1.613404 2.071701 2.234314 2.89711 0 0 .049439-.095093.074707.238922.623596 1.175751 1.221924 2.017487 1.820252 2.859223 0 0 .081726-.136154.084839.244384 1.000427 1.873719 1.997741 3.366913 2.995117 4.860108.134521.51474.268982 1.02948.749023 1.991699 9.78833 17.79686 17.650391 35.806458 22.433472 55.019989 2.531006 10.166931 4.55896 20.459076 6.814026 30.694702.016907.43982.033813.879669.086853 2.039643.349914 2.791442.663696 4.862701.977478 6.93399-.022583.446045-.045105.89212-.014954 2.117889.373841 5.146943.695069 9.514161 1.016297 13.881348.010131 2.039856.020263 4.079743.043152 7.014343.05725 6.915894.101684 12.937073.146118 18.958252-.116883 2.041962-.233765 4.083893-.38971 6.94458-.231079 6.897675-.423034 12.976624-.614929 19.055542-.112488 1.712616-.224976 3.425232-.3927 5.861878.364441 2.255188.784057 3.786285 1.203674 5.317413.75177.893128 1.503479 1.786255 2.651184 3.101105 1.397461 1.535065 2.398926 2.648468 3.400391 3.761841.427124.611908.854309 1.223785 1.655395 2.238891 1.018311 1.222443 1.662659 2.041687 2.307068 2.860932-.009277.323028.100159.598999.643006 1.216858.973144 1.246643 1.631652 2.104339 2.290222 2.962005.164673.50708.329284 1.01413.825439 1.976868 8.408692 14.8508 12.210816 30.296326 12.449829 46.806732.193421 13.365967-1.857422 26.271698-6.06073 38.897308-.372009.774323-.744079 1.548646-1.420837 2.845643-1.818543 3.713287-3.332337 6.9039-4.84613 10.094543-.580933.780212-1.161866 1.560425-2.093934 2.781311-.851562 1.363648-1.351928 2.286652-1.852294 3.209625 0 0 .090942.043-.228211.13208-.857971 1.004456-1.396851 1.9198-1.93573 2.835175-.864746.802704-1.729492 1.605408-2.952148 2.826599-.818543 1.065064-1.279236 1.711639-1.739869 2.358215-5.91986 4.998261-11.839721 9.996491-18.258911 15.340699-.941284.710083-1.383239 1.074157-1.825134 1.438232-.914734.425659-1.829468.851318-3.257629 1.631348-2.939881 1.653412-5.366333 2.952484-7.792786 4.251587-2.460449.921661-4.920898 1.843292-8.012451 3.004272-2.047363.656616-3.463684 1.073853-4.880005 1.491089-.505737.188324-1.011475.376648-2.044006.655792-1.068665.218537-1.610535.346283-2.152405.47403-.408386.137024-.816773.274109-1.850586.508667-1.067993.164551-1.510529.231628-1.953064.298706-1.113648.24115-2.227264.4823-4.005188.769592-1.107788.107849-1.551331.169556-1.994843.231323-1.439941.20459-2.879913.40918-5.127349.70398-6.829438.125976-12.85138.161682-18.873291.197449-.400086-.142884-.800171-.285767-1.758973-.709168-1.760955-.709839-2.963195-1.13916-4.165405-1.568542-1.654266-2.381592-3.308502-4.763215-5.016754-7.937622-.10495-6.428681-.139374-12.064759-.210053-17.700409-.197326-15.732209-.409667-31.464295-.616088-47.196412.008117-15.015686.016174-30.031402.020019-45.965179-.08136-16.278839-.158478-31.639587-.235596-47.000305.224274-5.300568.448548-10.601135.81604-16.605347.187958-1.253692.232697-1.80368.277405-2.353699.315094-.458435.630188-.916839 1.302674-1.799743 1.498046-1.671936 2.638702-2.919403 3.779327-4.166901.74765-.300171 1.495331-.600342 2.988373-.989807 15.024536-1.187286 28.01416 3.816132 42.00885 9.056458-.746704-13.823517-1.457703-26.986084-2.168701-40.148652.006805-.752014.01358-1.504058.004577-3.060943-1.352966-9.7836-2.246215-18.856537-4.127197-27.719849-3.131042-14.753967-7.68277-29.097687-14.78537-42.510925 0 0 .018494-.382141-.102325-.895767-1.377594-2.716568-2.634369-4.91951-3.891144-7.122452 0 0 .023437-.377762-.065521-.805206-.366303-.640931-.643646-.854416-.92096-1.067917 0 0-.046966.104477-.05365-.26854-1.309478-2.496475-2.612304-4.619964-3.91513-6.743438 0 0-.07721.126693-.081574-.245499-.999725-1.809647-1.995117-3.247101-2.990509-4.684555 0 0-.057495.093735-.083923-.23996-.649567-1.149658-1.272705-1.965622-1.895844-2.781586 0 0-.059509.105713-.091552-.22998-.664521-1.139664-1.297028-1.943634-1.929505-2.747604 0 0-.055877.095474-.091064-.236313-.662323-1.139481-1.28949-1.947159-1.916657-2.754837 0 0-.055267.092239-.10321-.244187-.986298-1.488327-1.924652-2.640228-2.863007-3.792114 0 .000015-.061401.107971-.100403-.229233-.678985-1.147094-1.31903-1.956985-1.959045-2.766891-.417847-.576218-.835693-1.152451-1.614685-2.16182-1.665558-1.918747-2.96991-3.404358-4.274231-4.889969 0 0-.090271.135773-.133484-.21817-1.02182-1.145462-2.000366-1.936996-2.978943-2.728531-2.029663-2.472641-3.906463-5.092819-6.120697-7.387359-4.671936-4.841355-9.520477-9.512299-14.778167-14.616791-1.334656-.962524-2.187714-1.561401-3.040802-2.160278-.813538-.85524-1.627045-1.71048-2.885407-2.919068-1.343475-.904907-2.242096-1.456451-3.140717-2.007995-.002532-.344513-.161834-.585388-.834503-1.069565-1.629486-1.168854-2.902313-1.990769-4.175171-2.812683 0 0-.047546.095367-.133575-.225479-1.007446-.850495-1.928833-1.380143-2.85025-1.909806-1.121216-.881241-2.242432-1.762497-3.827515-3.011139-2.015411-1.224105-3.567017-2.080825-5.118591-2.937561 0-.000007-.069916.119004-.152161-.200225-1.02475-.78872-1.967255-1.258217-2.909729-1.727723 0 0-.050171.097756-.133667-.221572-1.032196-.785248-1.980865-1.251153-2.929565-1.717057-.423066-.314682-.8461-.629371-1.709503-1.284202-4.009522-2.182793-7.578736-4.025437-11.147919-5.86808 0 0-.053986.111694-.106323-.16475-.386963-.36232-.72165-.448188-1.056305-.534057 0 0-.300843-.224716-.66568-.506554-1.629273-.791405-2.893708-1.300972-4.158142-1.810539 0 0-.090912.135353-.216675-.211754-7.388886-3.319122-14.454132-6.992058-21.95813-9.111259-13.866058-3.915917-27.989288-6.921288-42.005371-10.30597-.43454-.100395-.869049-.20079-1.972473-.485542-13.459198-.67733-26.249482-1.170303-39.039765-1.663269-.447906-.032074-.895782-.064148-2.096649-.052895-3.473511.369927-6.194092.696534-8.914642 1.023148-.445984-.013313-.891968-.026627-2.09726.003433-10.414306 1.740257-20.06932 3.437149-29.724319 5.134041-.235398-.041077-.472306-.069672-1.124191-.086266-.987534.252541-1.561615.505562-2.135697.758584-.42601.066917-.852005.133827-1.977051.239936-12.124206 4.312218-23.549392 8.585244-34.974563 12.858277-1.456345.612655-2.912689 1.225319-5.003998 2.038437-2.166214 1.133995-3.697449 2.067527-5.228684 3.00106 0 0-.391204-.017265-.828231.062203-.659317.347503-.881577.615531-1.103852.883567 0 0 .109482.048645-.267959.061821-3.14827 1.664421-5.919098 3.315659-8.689942 4.966889 0 0 .108475.056091-.273163.06298-3.480468 1.998841-6.579315 3.990792-9.678146 5.98275 0 0 .093582.04921-.240509.081025-1.151199.653198-1.968338 1.274581-2.785477 1.89595 0 0 .099808.05484-.234329.078522-1.140579.660034-1.947021 1.296386-2.753464 1.932754 0 0 .093934.055893-.232818.089584-1.128998.679352-1.931259 1.324997-2.733505 1.970658-.341233-.027512-.622864.089004-1.218628.677566-1.185547.989151-1.997361 1.65033-2.809159 2.311493-.333435-.011444-.608413.109726-1.183029.695465-1.139236.988236-1.92041 1.644516-2.701599 2.300782-17.503784 14.041503-32.087654 30.776855-45.112289 48.944763-1.135254 1.583557-2.103432 3.28688-3.180176 5.34996-.030953.415375-.159722.479126-.159722.479126-4.823867 8.393677-10.259178 16.500183-14.360946 25.233017-14.298775 30.442734-18.338173 62.882385-17.576882 97.035584.124535 3.598785.23806 6.303741.263581 9.345916.013176.779145.114349 1.220978.197509 1.915283.337296.097474.692605-.057495 1.344765-.23645.769417-.338073 1.241974-.652191 2.001244-.963501.766876-.226806 1.24704-.45636 1.727218-.685913 9.562577-2.188751 19.039734-4.944275 28.712494-6.401916 9.101258-1.371552 15.095726 4.694977 15.216614 13.903137.159164 12.123962.34449 24.247559.55452 37.208496.113357 3.868195.190765 6.899231.161331 10.369019-.032402 3.136779.042038 5.834777.11647 8.532806-.183189 29.576935-.382393 59.153748-.537987 88.730835-.03759 7.145935.019219 14.293365.125428 21.438721.081184 5.461914-2.01117 9.55606-7.593582 12.328888-1.665017.730712-2.78891 1.086059-3.912804 1.441406-2.037293.023254-4.074593.046509-6.99968.078674-8.578987-.615906-16.270179-1.240723-23.961372-1.865539-.418907-.110291-.837822-.22052-1.839485-.627259-7.744431-2.750488-14.906117-5.204437-22.067803-7.658386-.000003 0-.041221.098877-.147964-.225372-1.710281-1.121521-3.31382-1.918762-4.917355-2.716034-1.765587-1.254364-3.531173-2.508698-5.77692-4.123657-1.383682-.894318-2.287209-1.42804-3.190731-1.961762-.002014-.359833-.164318-.619507-.874775-1.098175-1.290871-.872406-2.193874-1.425659-3.096882-1.978882-4.09349-4.181579-8.186973-8.363128-12.698276-12.985901-1.377432-1.593902-2.337042-2.746582-3.296662-3.899231-.000007 0-.049732.093689-.089267-.230651-.673939-1.126435-1.308344-1.928498-1.942753-2.730561-.000006 0-.047745.08017-.09249-.243408-.662515-1.13855-1.280286-1.953522-1.898058-2.768494.000002 0-.047048.085999-.086165-.282318-1.67867-3.449463-3.318222-6.530609-4.957766-9.611786-.279012-.799835-.558034-1.599701-.969133-3.076324-1.423761-4.428894-2.715446-8.181-4.007131-11.933075-.007259-.445129-.014516-.890228-.052579-2.061371-.647836-3.805939-1.264866-6.885895-1.881895-9.965851.010871-.442779.021742-.885528-.036789-2.106994-.118794-6.46518-.168186-12.151673-.217579-17.838166.114891-.742096.229783-1.484222.48592-2.941558.518031-3.145386.698053-5.62613 1.307779-7.996338 1.98315-7.709107 4.123476-15.377777 6.203302-23.062012z" fill="#fafafa"/><path d="m289.008972 522.133911c-.422088-.107239-.844208-.214477-1.794555-.590759-1.728516-.740845-2.928803-1.212647-4.12909-1.684509 0 0-.034729.093566-.131286-.218506-1.37616-1.441101-2.655793-2.570069-3.935425-3.699097.060333-.367432-.061127-.65918-.692871-1.276062-.980225-1.827942-1.631928-3.255035-2.283661-4.682098-.004853-100.126191.009338-200.252411-.060242-300.378571-.004333-6.240982 2.445496-10.800552 8.241241-14.348343 3.659913-.67012 6.712586-1.037872 9.765229-1.405609 2.716034 1.325531 5.432098 2.651077 8.564544 4.406525 1.074402 1.233001 1.732331 2.036117 2.39029 2.839233 0 0 .04483-.072754.06842.283524.584229 1.819595 1.144867 3.282913 1.705506 4.746246.035949 39.322968.060943 78.645935.113372 117.968903.020447 15.329315.102753 30.658599.16919 46.915161.056579 46.278381.100799 91.629486.14505 136.980621-.092407.734741-.184815 1.469482-.531037 2.74527-.348358 1.113556-.442932 1.686096-.537475 2.258606 0 0-.241486.288391-.499725.648498-.781403 1.330078-1.304566 2.300049-1.827729 3.270081-.545776.406616-1.091552.813232-2.067871 1.580261-1.296509 1.037659-2.162506 1.714844-3.028473 2.392029 0 0-.371185-.049683-.811981.043396-.929748.367126-1.418762.641113-1.907776.915039-.436218.039612-.872406.079224-2.036682.141235-2.114349.064515-3.500641.106751-4.886963.148926z" fill="#fafafa"/><path d="m241.956528 256.017548c.010025.449951.02005.899871.088424 1.95227.279465 1.11261.50055 1.622742.721634 2.132904-.040405 30.801453-.085754 61.602936-.119903 92.404389-.037476 33.804016-.064606 67.608062-.238953 102.147247-.195816 1.602569-.248932 2.46994-.302048 3.337311 0 0-.219757.337616-.461883.657745-.343582.658478-.445023.996826-.546448 1.335205-1.847427 1.922333-3.694855 3.844635-6.1091 5.927307-.801697.437561-1.03656.714783-1.271424.992005 0 0-.396011-.027069-.857971.046997-.964264.318023-1.466537.561981-1.968811.805969-1.995712.051361-3.991424.102753-6.583282-.102905-1.163239-.344452-1.730332-.431885-2.29744-.519318-2.409653-1.979248-4.81929-3.958466-7.616455-6.350464-.707993-.875763-1.028473-1.338806-1.348953-1.801849-.286347-1.114319-.572693-2.228668-.94812-4.131989-.135376-7.806396-.181702-14.823761-.228028-21.841156.112961-29.697845.225937-59.39566.321381-90.011047-.104691-7.942169-.191849-14.966766-.279007-21.991394-.187271-4.824982-.374542-9.649963-.312805-14.933106.048889-1.646545-.151245-2.834869-.35138-4.023223.106583-5.47345.213181-10.9469.504837-16.982087.000123-2.02539-.184814-3.489074-.369735-4.952758 0 0 .044327-.173829.318741-.417176.089325-2.011871-.095734-3.780426-.280793-5.54898.007477-2.173493.014954-4.347016.224976-7.029389.000732-1.696747-.20105-2.884674-.402832-4.072571 1.672333-4.00476 3.038925-8.182205 5.158096-11.934631.929733-1.646301 3.39444-2.42572 5.714066-3.861786 1.384704-.471207 2.217514-.679382 3.050339-.887543 5.316467.148255 10.372955.96843 14.426406 5.88028 1.058228 1.561142 1.712357 2.667435 2.366471 3.773743z" fill="#f7f7f7"/><path d="m370.139954 418.991913c-.144837 9.015716-.289673 18.031463-.485718 27.881134-.614136 4.922241-1.177002 9.010528-1.739868 13.098755-1.577332 1.743561-3.154602 3.487152-5.227112 5.656555-5.937866 3.951721-11.284119 3.087097-16.583191.072601-.789581-.853363-1.579163-1.706726-2.747681-2.979889-.996856-1.313903-1.614715-2.208099-2.232574-3.102264 0 0 .055054-.357849-.042999-.915375-.729065-7.284942-1.360108-14.012359-1.99115-20.739776.026153-5.351136.052307-10.70224.042389-16.973786-.066712-13.386383-.110321-25.852264-.125611-38.318237-.049713-40.554718-.089111-81.109436-.132477-121.664154.382538-1.100373.765046-2.200775 1.370789-3.875763.799499-1.737351 1.375793-2.90007 1.952087-4.062775 2.074097-1.613174 4.148194-3.226333 6.840363-4.964981 1.411011-.423584 2.203888-.72168 2.996796-1.01976 1.358886.073853 2.717773.147705 4.759063.396805 2.511231.660843 4.340088 1.146423 6.168915 1.632034.705902.634415 1.411804 1.268829 2.52887 2.251007 1.087951 1.146881 1.76477 1.946015 2.44162 2.745163 0 0 .044281-.081543.099151.314285.692108 3.411591 1.87381 6.425385 1.884766 9.443421.1651 45.374695.176147 90.749908.223389 136.12503-.052033.756684-.104035 1.513367-.146119 3.105103.05539 5.85498.10083 10.874908.146302 15.894867z" fill="#fbfbfb"/><path d="m433.580658 308.186188c.040863 32.602691.081726 65.205383-.028107 98.527008-.258148 1.572723-.3656 2.426513-.473022 3.280334-2.848053 2.884369-5.696106 5.768738-9.10846 8.839417-1.084289.400512-1.604278.614746-2.124267.828979-.419831.066681-.839691.133362-1.927552.257324-1.415985.095734-2.163909.134217-2.911865.17273-.405395-.131134-.810791-.262238-1.730407-.636597-1.10022-.295288-1.686188-.34732-2.272187-.399353-2.554687-2.178375-5.109375-4.35675-7.86795-7.084808-.483185-.784882-.762451-1.02005-1.041718-1.255219 0 0 .030915-.396514-.045562-.851623-.292176-.97403-.507874-1.492951-.723572-2.011902-.056549-32.938568-.113098-65.877136.126678-99.452209.347626-1.221863.398957-1.807221.450257-2.392579 2.848846-2.891479 5.697662-5.782959 9.117584-8.851196 1.102386-.364258 1.633636-.551758 2.164886-.739258 1.939911-.034698 3.879853-.069366 6.444702.127777 1.203797.270295 1.782685.308777 2.361542.34726 2.861084 2.871521 5.722168 5.743042 8.803864 9.156799.408783 1.073853.596985 1.605469.785156 2.137116z" fill="#faf9fa"/><path d="m161.073425 296.170776c1.338227.058869 2.676438.117737 4.673569.336335 1.521881.248138 2.384872.336517 3.247849.424926 2.418594 1.956513 4.837204 3.913056 7.644317 6.27414.706909.869903 1.025284 1.335296 1.343659 1.800689.243194.816071.486404 1.632172.875854 3.191132.189392 33.092316.232544 65.441742.275696 97.791168-.089829.436249-.179657.872528-.48642 1.865509-.411926 1.40271-.606903 2.248658-.80188 3.094605-1.552429 1.757263-3.104843 3.514526-5.131973 5.683197-2.904831 1.353943-5.334946 2.296478-7.765045 3.239013-.718796-.040008-1.437576-.080017-2.76857-.339294-2.421204-.724823-4.230194-1.230408-6.039185-1.735992 0 0-.042068.101989-.09494-.168549-.379532-.34378-.706192-.416992-1.032837-.490204-1.300705-1.179931-2.60141-2.359863-3.994446-4.126373-.370681-.817047-.649063-1.047547-.927459-1.278046-.238434-.762573-.476868-1.525177-.909027-2.866516-.443375-1.709808-.693024-2.840881-.942688-3.971924.029449-29.634063.057464-59.268127.091461-88.902191.002289-1.99765.049713-3.99527.169494-6.713623.221741-1.572845.350159-2.424988.478562-3.2771 2.831116-2.879364 5.662247-5.758728 9.086105-8.834564 1.397782-.463104 2.202835-.729706 3.007904-.996338z" fill="#f8f8f8"/><path d="m338.488159 261.109314c.429169 40.452881.468567 81.007599.51828 121.562317.01529 12.465973.058899 24.931854.017273 37.86145-.721771-.841888-1.936737-2.146362-1.939209-3.453094-.096283-50.765015-.089355-101.530243-.036011-152.29538.001252-1.191528.687256-2.382355 1.439667-3.675293z" fill="#060606"/><path d="m370.524231 399.888916c-.431702-45.272095-.442749-90.647308-.607849-136.022003-.010956-3.018036-1.192658-6.03183-1.927551-9.425507 1.27185 2.356232 3.819946 5.083893 3.835022 7.82547.246276 44.809937.179687 89.621674.125335 134.432923-.001251 1.029113-.678528 2.057403-1.424957 3.189117z" fill="#060606"/><path d="m55.858322 188.163986c-5.692303 16.100571-12.489395 31.968949-17.635162 48.355866-8.532467 27.172043-9.621439 55.312118-8.515257 83.579971.182104 4.653625.207264 9.313354.237528 14.434601-.692517-.529694-1.856291-1.520355-1.862526-2.518219-.107128-17.142914-.996359-34.350311.177963-51.413391 1.329641-19.319855 5.440979-38.352219 11.979763-56.663239 4.170239-11.678207 9.188446-23.054107 13.875805-34.545425.208889-.512085.90823-.824127 1.741886-1.230164z" fill="#0f0f0f"/><path d="m307.529633 507.88855c-.4292-45.249115-.47342-90.60022-.451081-136.415222.683869.865753 1.837799 2.194275 1.840698 3.525299.093781 43.069763.085297 86.139801.030732 129.209717-.001496 1.193145-.675141 2.385467-1.420349 3.680206z" fill="#040404"/><path d="m179.520752 405.890015c-.429535-32.250275-.472687-64.599701-.478745-97.416046.676621.677429 1.870987 1.819976 1.874726 2.9664.099823 30.591705.085953 61.183838.029739 91.775756-.001571.858887-.677719 1.716523-1.42572 2.67389z" fill="#020101"/><path d="m572.447754 456.92865c3.853332-12.556885 5.904175-25.462616 5.710754-38.828583-.239013-16.510406-4.041137-31.955932-12.193908-46.705902 1.090454.891174 2.613647 1.952362 3.368164 3.411163 9.433044 18.237091 12.931396 37.588776 9.610412 57.862214-1.339966 8.180175-4.055786 16.134979-6.495422 24.261108z" fill="#0c0c0d"/><path d="m550.17749 264.799072c-2.557861-9.984741-4.585815-20.276886-7.116821-30.443817-4.783081-19.213531-12.645142-37.223129-22.17572-54.927017.87323.403641 2.21936.959656 2.73883 1.949478 12.667481 24.139221 22.348389 49.325775 26.380127 76.446259.329407 2.216034.32544 4.481659.173584 6.975097z" fill="#0b0a0b"/><path d="m509.724609 290.286621c1.008484 12.867951 1.719483 26.030518 2.466187 39.854035-13.99469-5.240326-26.984314-10.243744-41.726563-9.195466 3.102173-3.865478 7.562317-2.148712 11.40683-1.340026 9.170868 1.929077 18.189575 4.58142 27.927216 7.112579 0-5.373016.046844-10.606934-.011719-15.839661-.075775-6.766082-.235718-13.53128-.061951-20.591461z" fill="#0f0f0f"/><path d="m419.842468 79.86055c-14.200866-5.800934-28.1669-12.590157-42.669861-17.917706-11.170623-4.103427-23.016052-6.369815-34.873046-9.679561 4.13504.181083 8.732421.00074 13.00299 1.095417 21.455353 5.499687 42.136627 13.126545 61.672028 23.668583 1.085998.586044 1.920196 1.638672 2.867889 2.833267z" fill="#0e0e0e"/><path d="m252.789948 49.812073c-10.321671 2.594185-21.107193 4.198204-31.419236 7.350918-14.067367 4.300827-27.773895 9.781833-42.002212 14.758167 1.237335-1.250054 2.662658-2.930115 4.473755-3.686638 18.758087-7.835522 37.982696-14.207192 58.072204-17.664238 3.498001-.601944 7.079651-.717781 10.875489-.758209z" fill="#0e0e0e"/><path d="m491.082642 217.113144c7.134063 13.000381 11.685791 27.344101 14.816833 42.098068 1.880982 8.863312 2.774231 17.936249 4.044464 27.351257-1.023865-3.176147-2.041748-6.773712-2.926941-10.403656-3.321869-13.621765-6.434021-27.297515-9.971222-40.862686-1.573455-6.034134-3.971069-11.853363-5.963134-18.182983z" fill="#0f0f0f"/><path d="m460.896851 440.228149c.543274 15.469147.755615 31.201233.952941 46.933442.070679 5.63565.105103 11.271728.092164 17.372406-.688782-.523255-1.854401-1.508851-1.858735-2.499573-.088073-20.053894-.046295-40.108368-.003662-60.162689.000977-.460511.313324-.92038.817292-1.643586z" fill="#0f0f0f"/><path d="m319.898865 48.492645c-14.01651.092888-28.133667-.45243-42.246948-.364631-7.266053.045208-14.525116 1.217876-22.218674 1.820118 2.993973-1.022664 6.388382-2.669499 9.850052-2.825688 13.872192-.625896 27.76474-.976486 41.650848-1.012543 4.286774-.011131 8.576996 1.300732 12.964722 2.382744z" fill="#0e0e0e"/><path d="m323.093384 94.49189c13.925873 3.017044 28.049103 6.022415 41.915161 9.938332 7.503998 2.119201 14.569244 5.792137 22.027496 9.068405-3.667968-.950119-7.601776-2.022316-11.381897-3.490288-16.66391-6.471321-33.719696-11.473793-51.416656-14.189484-.391144-.06002-.704315-.628196-1.144104-1.326965z" fill="#0c0c0d"/><path d="m460.621826 347.091858c.473419 15.268555.550537 30.629303.527985 46.449554-.782166-.654724-2.047547-1.763275-2.058472-2.884094-.133514-13.656891-.103943-27.315674-.027679-40.97345.004638-.835418.757263-1.666656 1.558166-2.59201z" fill="#0f0f0f"/><path d="m282.28418 92.274567c12.497039.19384 25.287323.686813 38.413635 1.403953-.697937.58963-1.754547 1.325585-2.762451 1.264015-11.790222-.72023-23.57312-1.560379-35.651184-2.667968z" fill="#0c0c0d"/><path d="m198.983276 112.151596c11.388459-4.57093 22.813645-8.843956 34.62616-13.06855-.545319.806358-1.36232 1.862762-2.428574 2.275909-10.372085 4.018975-20.783813 7.935883-31.203521 11.8303-.199127.074425-.632996-.47918-.994065-1.037659z" fill="#0c0c0d"/><path d="m121.207321 391.252136c-.39595-2.973633-.47039-5.671631-.083969-8.804077.932892-.438934 1.404923-.443481 1.876953-.448059-.000252 18.020569-.000503 36.041138-.242294 54.528076-.241532.4664-.724228.44931-.724228.44931-.007202-13.364257.003456-26.728546-.042908-40.092681-.006195-1.786164-.300926-3.57132-.783554-5.632569z" fill="#1c1b1b"/><path d="m122.999435 443.001129v56.7547c-.325485.001587-.650978.003174-.976463.004761 0-18.601197 0-37.202423.246483-56.279511.246475-.47583.72998-.47995.72998-.47995z" fill="#1c1b1b"/><path d="m11.521812 379.073883c-1.737289 7.616303-3.877615 15.284973-5.860765 22.99408-.609726 2.370208-.789748 4.850952-1.364517 7.624359-.562039-.530274-1.360671-1.479279-1.22409-2.26593 1.686334-9.712708 2.674393-19.643067 8.449372-28.352509z" fill="#090909"/><path d="m239.575104 98.346283c9.237961-1.960007 18.892975-3.656899 28.984985-5.294312-2.163055.832436-4.717499 1.870575-7.371979 2.327042-7.042266 1.210983-14.127716 2.170708-21.613006 2.96727z" fill="#0c0c0d"/><path d="m78.091751 513.49707c7.605248.257263 15.29644.88208 23.444931 1.574585-1.33622.689087-3.212051 2.007508-4.908508 1.807068-6.182579-.730224-12.305229-1.967834-18.536423-3.381653z" fill="#090909"/><path d="m211.482361 433.110413c.431732 6.916198.478058 13.933563.475036 21.416809-.496612.273163-1.337219.074371-1.334335-.111328.109757-7.068848.296997-14.136475.859299-21.305481z" fill="#040404"/><path d="m211.520935 321.103516c.476364 6.927887.563522 13.952484.56163 21.436523-.638168.147797-1.672531-.175659-1.665252-.473694.169891-6.957031.452545-13.911316 1.103622-20.962829z" fill="#040404"/><path d="m338.777832 438.24884c.942871 6.442231 1.573914 13.169648 2.17984 20.3219-.981903-1.130493-2.688141-2.652954-2.758118-4.247223-.230377-5.249146.131836-10.524323.578278-16.074677z" fill="#060606"/><path d="m54.11631 505.20755c7.143894 2.090271 14.30558 4.54422 21.725495 7.272858-.094468.613952-.585251 1.314697-.779908 1.240356-6.993065-2.671631-13.958515-5.415588-20.945587-8.513214z" fill="#090909"/><path d="m70.941643 326.998322c-.113526-2.704926-.227051-5.409882-.228188-8.553315 1.466652.65622 3.224129 1.509644 4.063652 2.912415.868256 1.450745.8452 3.434936 1.27964 5.59668-.412551.640441-.892715.869995-1.971099.965454-1.446816-.396454-2.295411-.658844-3.144005-.921234z" fill="#151515"/><path d="m473.102173 515.465881c5.920715-.424316 11.942657-.460022 18.430755-.449035.274842.496093.075898 1.341186-.106781 1.337646-6.075195-.116516-12.148895-.314209-18.323974-.888611z" fill="#0f0f0f"/><path d="m552.514526 315.891357c-.429321-5.917114-.473755-11.938293-.450134-18.423095.509827-.262635 1.340637-.054077 1.336975.138305-.11737 6.061219-.315857 12.120819-.886841 18.28479z" fill="#0b0a0b"/><path d="m551.51062 341.892517c-.193725-5.975891-.00177-12.05484.314392-18.521973.106507 5.88086.088867 12.149903-.314392 18.521973z" fill="#0b0a0b"/><path d="m3.482381 413.109009c.43436 5.583343.483752 11.269836.482311 17.42157-.497835.273498-1.338131.074524-1.334766-.109009.105198-5.737427.292632-11.473297.852455-17.312561z" fill="#090909"/><path d="m339.912415 51.509239c-5.362244-.437111-10.810059-1.235336-16.595917-2.239319 5.561218-1.800094 11.121124-.650715 16.595917 2.239319z" fill="#0e0e0e"/><path d="m346.11615 466.08136c5.286987 2.634094 10.63324 3.498718 16.445007-.154175-2.842102 5.409821-11.332824 5.744171-16.445007.154175z" fill="#060606"/><path d="m370.523743 418.889282c-.429261-4.917328-.474701-9.937256-.452332-15.41925.671448.186645 1.817566.857391 1.792236 1.480468-.187744 4.617371-.60852 9.225281-1.339904 13.938782z" fill="#060606"/><path d="m29.747559 339.272522c.216268 4.639343.130748 9.569244-.321042 14.691345-.23776-4.672149-.109254-9.536468.321042-14.691345z" fill="#0f0f0f"/><path d="m552.244751 289.735901c-.62561-4.080261-.946838-8.447479-1.212891-13.273621.693421.972901 1.792725 2.379212 1.873597 3.841858.167724 3.03244-.205506 6.094788-.660706 9.431763z" fill="#0b0a0b"/><path d="m368.291809 459.917969c.185425-4.034394.748291-8.122681 1.452332-12.586121 2.057373 4.146027 2.234222 8.503357-1.452332 12.586121z" fill="#060606"/><path d="m123.000793 381.533875c-.472518.470703-.944549.47525-1.770599.475433-.431427-3.03537-.508835-6.066406-.484802-9.54068.491821-1.861542.882202-3.279877 1.522362-5.086121.249778-.38797.732246-.382507.732246-.382507.00042 4.68924.000847 9.37851.000793 14.533875z" fill="#151515"/><path d="m5.776204 445.206818c1.571671 3.523498 2.863356 7.275604 4.134948 11.407928-4.354983-2.381836-3.975377-6.93631-4.134948-11.407928z" fill="#090909"/><path d="m393.162292 117.129654c3.576691 1.482124 7.145905 3.324768 10.872864 5.482208-3.521576-1.497368-7.200958-3.309532-10.872864-5.482208z" fill="#0c0c0d"/><path d="m122.999954 366.531464c.000046.468536-.482422.463073-.723083.453827-.24482-6.681916-.248986-13.354584-.006546-20.503296.246605-.476014.728759-.480774.728759-.480774.000275 6.687225.00055 13.374481.00087 20.530243z" fill="#1c1b1b"/><path d="m566.186951 469.912781c1.157653-3.165863 2.671447-6.356476 4.474792-9.738159-1.17987 3.110382-2.649292 6.411865-4.474792 9.738159z" fill="#0c0c0d"/><path d="m10.778509 460.188141c1.893489 2.880676 3.533041 5.961822 5.256544 9.391479-1.780858-2.831329-3.64567-6.011169-5.256544-9.391479z" fill="#090909"/><path d="m168.256149 128.935669c2.715271-2.014221 5.814118-4.006172 9.265747-6.05883-2.725525 1.986557-5.803863 4.033821-9.265747 6.05883z" fill="#0c0c0d"/><path d="m3.820362 433.201843c.918383 2.829132 1.535413 5.909088 2.097468 9.390625-.836257-2.778869-1.617539-5.95932-2.097468-9.390625z" fill="#090909"/><path d="m293.898865 193.481766c-2.963196.736328-6.015869 1.10408-9.483429 1.495865 2.264374-3.671631 5.620178-3.853608 9.483429-1.495865z" fill="#020101"/><path d="m271.251038 93.240433c2.449157-.621353 5.169738-.94796 8.31842-1.214432-1.859406 3.686974-5.112183 1.668144-8.31842 1.214432z" fill="#0c0c0d"/><path d="m178.211212 122.903107c2.38353-1.686661 5.154358-3.337899 8.277374-5.056633-2.395233 1.652359-5.142639 3.3722-8.277374 5.056633z" fill="#0c0c0d"/><path d="m476.907166 121.89415c-2.221924-1.515473-4.441285-3.396187-6.80127-5.579682 2.174225 1.536286 4.489044 3.375367 6.80127 5.579682z" fill="#0b0a0b"/><path d="m524.078735 507.023621c2.241883-1.580292 4.668335-2.879364 7.443055-4.276246-2.187317 1.45398-4.722901 3.005707-7.443055 4.276246z" fill="#0f0f0f"/><path d="m165.172318 420.161865c2.206832-1.23291 4.636947-2.175445 7.41481-3.229614-.991516 3.535828-3.723542 4.29187-7.41481 3.229614z" fill="#0b0a0b"/><path d="m122.999802 345.537018c-.000718.464203-.482872.468963-.723404.477997-.240525-4.254181-.240525-8.517395-.240525-12.780609.321549-.002808.64309-.005585.964638-.008393 0 3.948944 0 7.897858-.000709 12.311005z" fill="#151515"/><path d="m551.227783 273.770142c-.602539-1.817841-.916321-3.8891-1.167602-6.363099.527221 1.768097.991821 3.938874 1.167602 6.363099z" fill="#0b0a0b"/><path d="m488.971497 134.721375c-1.661866-1.38649-3.318604-3.148469-5.094788-5.221909 1.620361 1.407822 3.360138 3.127106 5.094788 5.221909z" fill="#0b0a0b"/><path d="m482.122314 200.185226c1.345887 1.735215 2.648713 3.858704 4.010224 6.331253-1.311951-1.74826-2.682587-3.845626-4.010224-6.331253z" fill="#0f0f0f"/><path d="m487.091125 209.073517c1.286286 1.811493 2.543061 4.014435 3.815125 6.571472-1.271362-1.823959-2.557983-4.001984-3.815125-6.571472z" fill="#0f0f0f"/><path d="m165.904541 78.084755c-1.78775 1.324905-3.970306 2.622292-6.50058 3.993721 1.803436-1.291054 3.95459-2.656143 6.50058-3.993721z" fill="#0e0e0e"/><path d="m60.768238 179.08316c-.776283 2.259949-1.914349 4.55513-3.355297 7.02594.795917-2.213165 1.894714-4.601928 3.355297-7.02594z" fill="#0f0f0f"/><path d="m362.924438 248.750183c-1.79129-.122757-3.620147-.608337-5.726379-1.323578 2.238831-2.476684 4.068482-1.28247 5.726379 1.323578z" fill="#060606"/><path d="m98.925949 128.100769c-.881248 1.500061-2.131676 2.995041-3.670975 4.635803.908013-1.449783 2.104905-3.045349 3.670975-4.635803z" fill="#090909"/><path d="m466.818909 322.056641c-.765961 1.264862-1.906617 2.512329-3.337708 3.889129-1.249328-2.481201-.756775-3.092193 3.337708-3.889129z" fill="#0f0f0f"/><path d="m156.922546 82.963371c-1.273544 1.196137-2.723877 2.118988-4.501831 3.110268 1.223267-1.08223 2.774155-2.232887 4.501831-3.110268z" fill="#0e0e0e"/><path d="m156.147064 418.160034c1.803223.141754 3.612213.647339 5.672516 1.404114-1.721359-.179352-3.694061-.609833-5.672516-1.404114z" fill="#0b0a0b"/><path d="m462.125488 172.178635c1.348999 1.099395 2.653351 2.585006 4.0719 4.3871-1.296051-1.12262-2.706299-2.561752-4.0719-4.3871z" fill="#0f0f0f"/><path d="m289.080688 522.481079c1.314606-.389343 2.700898-.431579 4.498627-.406555-.841675 2.831177-2.521148 2.589722-4.498627.406555z" fill="#040404"/><path d="m109.086945 118.451202c-.891755 1.279526-2.142319 2.423287-3.694733 3.683731.910751-1.195365 2.123344-2.507431 3.694733-3.683731z" fill="#090909"/><path d="m177.894379 72.082169c-1.416626 1.014755-3.242691 1.997337-5.423004 3.035888 1.435028-.985374 3.224304-2.026718 5.423004-3.035888z" fill="#0e0e0e"/><path d="m151.755188 86.073105c-1.059052 1.011925-2.500961 1.999618-4.273148 3.061752 1.076569-.979027 2.483429-2.032509 4.273148-3.061752z" fill="#0e0e0e"/><path d="m431.861084 86.821655c-1.582794-.46212-3.1745-1.295753-4.922668-2.435501 1.533599.483925 3.223693 1.273964 4.922668 2.435501z" fill="#090909"/><path d="m551.956543 352.771851c-.440186-1.128144-.859802-2.659241-1.147949-4.491547.477234 1.162048.822876 2.625305 1.147949 4.491547z" fill="#0b0a0b"/><path d="m49.073559 502.264709c1.563175.435029 3.166714 1.23227 4.92461 2.329255-1.525177-.455872-3.204712-1.211426-4.92461-2.329255z" fill="#090909"/><path d="m424.922424 82.731506c-1.572876-.413276-3.189361-1.190353-4.968689-2.264007 1.533112.435692 3.229065 1.167953 4.968689 2.264007z" fill="#0e0e0e"/><path d="m275.785522 510.189362c.908295 1.220581 1.559998 2.647674 2.299775 4.413787-.793366-1.176391-1.674836-2.691864-2.299775-4.413787z" fill="#020101"/><path d="m412.154114 128.156174c1.549804.488556 3.10141 1.345276 4.811462 2.500229-1.497558-.511872-3.153595-1.321961-4.811462-2.500229z" fill="#0c0c0d"/><path d="m511.071289 511.544983c1.346741-.724426 2.763062-1.141663 4.553955-1.545776-1.245056.626403-2.864685 1.239685-4.553955 1.545776z" fill="#0f0f0f"/><path d="m279.03067 516.326416c1.267578.743652 2.547211 1.87262 3.96817 3.291687-1.224517-.775391-2.590332-1.840881-3.96817-3.291687z" fill="#040404"/><path d="m307.000916 205.936798c-.844483-1.274246-1.405121-2.737564-2.029725-4.543182.728547 1.223175 1.521058 2.788635 2.029725 4.543182z" fill="#040404"/><path d="m189.095139 116.92099c1.149978-.961327 2.681213-1.894859 4.557632-2.838501-1.162018.9487-2.669205 1.907501-4.557632 2.838501z" fill="#0c0c0d"/><path d="m479.071289 195.249664c1.017395 1.054703 2.012787 2.492157 3.075165 4.262055-.987702-1.071472-2.04242-2.475388-3.075165-4.262055z" fill="#0f0f0f"/><path d="m64.827728 172.153198c-.460014 1.58696-1.29235 3.182068-2.428119 4.934845.482978-1.537109 1.269394-3.231918 2.428119-4.934845z" fill="#0f0f0f"/><path d="m519.909912 176.946411c-1.029114-1.096039-2.026428-2.589233-3.093628-4.419952.995239 1.115906 2.060303 2.569351 3.093628 4.419952z" fill="#0b0a0b"/><path d="m458.881165 105.970901c-1.256897-.496047-2.507874-1.379447-3.896363-2.563476 1.209107.524963 2.555695 1.350548 3.896363 2.563476z" fill="#090909"/><path d="m503.957703 152.769318c-.982087-.7724-1.951844-1.927521-3.030945-3.392731.941559.7966 1.992431 1.90332 3.030945 3.392731z" fill="#0b0a0b"/><path d="m210.932358 274.608398c.671707 1.309601.856766 3.078156.812958 5.021729-.585785-1.404266-.942688-2.983521-.812958-5.021729z" fill="#030303"/><path d="m557.981445 359.657898c-.995361-.73349-1.996826-1.846893-3.123657-3.260376.955628.760132 2.03656 1.820312 3.123657 3.260376z" fill="#0b0a0b"/><path d="m20.073801 476.238342c.984772.769165 1.944382 1.921845 3.022028 3.379669-.937038-.795288-1.992113-1.895751-3.022028-3.379669z" fill="#090909"/><path d="m341.859192 253.081284c-.238648 1.15036-.814942 2.313079-1.632111 3.6949.270905-1.081451.782715-2.381988 1.632111-3.6949z" fill="#060606"/><path d="m242.210052 255.821716c-.907638-.910476-1.561767-2.016769-2.310928-3.439331.791458.870346 1.677963 2.056931 2.310928 3.439331z" fill="#030303"/><path d="m467.096985 513.154663c1.181824.074341 2.384064.503662 3.832458 1.148193-1.106567-.120971-2.45935-.457092-3.832458-1.148193z" fill="#0f0f0f"/><path d="m109.197319 515.202026c.893433-.640991 2.017326-.996338 3.481758-1.473877-.856743.505066-2.054016 1.132264-3.481758 1.473877z" fill="#090909"/><path d="m424.095032 136.245773c1.260101.44812 2.532928 1.270035 3.939697 2.39119-1.219696-.472962-2.573334-1.245178-3.939697-2.39119z" fill="#0c0c0d"/><path d="m147.945953 405.098602c.54361.927033.793259 2.058106 1.023346 3.543305-.452148-.877014-.884704-2.108155-1.023346-3.543305z" fill="#040404"/><path d="m83.891754 145.104767c-.489418 1.257065-1.361343 2.516052-2.532867 3.914062.517051-1.21138 1.333709-2.561767 2.532867-3.914062z" fill="#0c0c0d"/><path d="m470.088501 182.219452c.968384.772766 1.906738 1.924667 2.940552 3.387787-.926605-.795395-1.948609-1.902024-2.940552-3.387787z" fill="#0f0f0f"/><path d="m283.098022 520.201538c1.187592.128967 2.387879.600769 3.789307 1.329956-1.124756-.157471-2.450683-.572265-3.789307-1.329956z" fill="#040404"/><path d="m151.176147 141.197968c.585114-.907029 1.366288-1.563309 2.440918-2.328888-.552642.787002-1.398742 1.683334-2.440918 2.328888z" fill="#0c0c0d"/><path d="m435.106995 145.023468c.864166.256699 1.717224.855576 2.727722 1.727509-.808014-.279755-1.773407-.832535-2.727722-1.727509z" fill="#0c0c0d"/><path d="m459.074829 169.209045c.961487.428208 1.940033 1.219742 3.029083 2.319123-.930328-.446717-1.971161-1.201264-3.029083-2.319123z" fill="#0f0f0f"/><path d="m417.057312 420.415222c.698029-.361755 1.445953-.400238 2.56427-.376098-.591186.274871-1.552795.487091-2.56427.376098z" fill="#030303"/><path d="m148.645645 306.051575c.205368.802215.07695 1.654358-.239471 2.772278-.156769-.730225-.125534-1.726288.239471-2.772278z" fill="#040404"/><path d="m168.940735 296.599731c-.808869.243897-1.67186.155518-2.792938-.135345.74086-.200653 1.739853-.198792 2.792938.135345z" fill="#040404"/><path d="m123.00013 442.572266c-.000695.428863-.4842.432983-.725411.441589-.248443-1.718201-.255676-3.445007-.251922-5.604157.010986-.432312.493682-.415222.73516-.413024.241944 1.717041.242402 3.431854.242173 5.575592z" fill="#151515"/><path d="m160.888641 295.896912c-.620285.540496-1.425338.807098-2.556884 1.05365.573043-.455872 1.472564-.891694 2.556884-1.05365z" fill="#040404"/><path d="m210.904388 280.628479c.661591.950806.846528 2.41449.800904 4.046326-.579575-1.065735-.928574-2.299591-.800904-4.046326z" fill="#030303"/><path d="m387.192627 114.148178c1.255157.114624 2.519592.624191 3.961792 1.431641-1.199005-.146981-2.575775-.591835-3.961792-1.431641z" fill="#0c0c0d"/><path d="m178.185562 410.927673c-.144516-.82434.050461-1.670288.487473-2.738372.112045.757507-.017975 1.737152-.487473 2.738372z" fill="#020101"/><path d="m433.408264 409.941925c-.221313-.802216-.113861-1.656006.193543-2.766937.178344.733673.156768 1.724518-.193543 2.766937z" fill="#030303"/><path d="m351.847595 246.82045c-.606506.561828-1.399383.859924-2.516693 1.116134.560486-.487869 1.445374-.933868 2.516693-1.116134z" fill="#060606"/><path d="m224.981567 246.06871c-.650741.502976-1.483551.711151-2.647979.914688.600891-.406265 1.533386-.807876 2.647979-.914688z" fill="#030303"/><path d="m242.44162 457.931946c-.282822-.807648-.229706-1.675019-.001526-2.820069.229202.734986.283325 1.747651.001526 2.820069z" fill="#030303"/><g fill="#090909"><path d="m443.890808 94.772995c-.895752-.13356-1.816193-.629631-2.86795-1.414566.860199.158112 1.851715.605087 2.86795 1.414566z"/><path d="m18.0536 473.263794c.647742.431915 1.282147 1.233978 2.00486 2.3396-.613857-.454163-1.316026-1.211823-2.00486-2.3396z"/><path d="m440.903534 92.747116c-.901276-.121071-1.834534-.603561-2.894989-1.377647.869537.144348 1.866272.580284 2.894989 1.377647z"/><path d="m446.886475 96.896416c-.907319-.157219-1.830597-.688912-2.886536-1.513848.868408.184296 1.869507.661827 2.886536 1.513848z"/><path d="m136.736053 96.034607c-.440811.637062-1.249679 1.273193-2.362976 1.994331.462021-.608406 1.22847-1.301826 2.362976-1.994331z"/></g><path d="m468.048004 179.218414c.651093.4357 1.291138 1.245591 2.023865 2.361542-.616486-.45842-1.325714-1.2229-2.023865-2.361542z" fill="#0f0f0f"/><path d="m133.735809 98.057541c-.424148.678284-1.225998 1.341568-2.336792 2.099289.447083-.641815 1.203095-1.378052 2.336792-2.099289z" fill="#090909"/><path d="m450.904968 99.82254c-.89096-.159752-1.80899-.686653-2.873077-1.498016.851288.187309 1.848633.659096 2.873077 1.498016z" fill="#090909"/><path d="m129.77536 101.046425c-.425659.692383-1.23674 1.373871-2.356537 2.16159.451218-.653335 1.211167-1.41291 2.356537-2.16159z" fill="#090909"/><path d="m454.878845 102.793381c-.886322-.155648-1.791168-.675194-2.839294-1.476013.844757.183181 1.832733.647651 2.839294 1.476013z" fill="#090909"/><path d="m36.109848 493.112c.887051.181213 1.790054.734466 2.843426 1.569824-.842247-.211182-1.834862-.704499-2.843426-1.569824z" fill="#090909"/><path d="m79.90271 150.119904c-.170967.905319-.717323 1.826599-1.556671 2.885315.19844-.864808.689857-1.867081 1.556671-2.885315z" fill="#0c0c0d"/><path d="m74.782715 157.088409c-.149506.88707-.662575 1.809128-1.457962 2.8797.176582-.849228.63549-1.846969 1.457962-2.8797z" fill="#0c0c0d"/><path d="m299.056885 520.91333c.461456-.7052 1.327453-1.382385 2.505096-2.185974-.492431.653686-1.296509 1.433838-2.505096 2.185974z" fill="#040404"/><path d="m508.941528 159.742294c-.644195-.445175-1.273101-1.261963-1.99945-2.382492.606567.467789 1.310638 1.239334 1.99945 2.382492z" fill="#0b0a0b"/><path d="m304.136597 516.886475c.135284-.943482.658447-1.913453 1.465362-3.057251-.169983.894409-.623749 1.962585-1.465362 3.057251z" fill="#040404"/><path d="m510.961121 162.760635c-.642792-.445053-1.27829-1.259918-1.994019-2.383453.613617.465424 1.307495 1.239548 1.994019 2.383453z" fill="#0b0a0b"/><path d="m514.927002 168.76889c-.644653-.453369-1.265625-1.278778-1.974487-2.412414.60736.47464 1.302795 1.257507 1.974487 2.412414z" fill="#0b0a0b"/><path d="m66.76915 169.091354c-.101448.912705-.570259 1.866043-1.32782 2.959946.127647-.879379.544044-1.899353 1.32782-2.959946z" fill="#0f0f0f"/><path d="m40.092705 496.182159c.876365.16861 1.779892.702332 2.840439 1.511475-.833081-.198517-1.823178-.672455-2.840439-1.511475z" fill="#090909"/><path d="m437.8974 90.75882c-.897858-.127366-1.82431-.616837-2.882141-1.3947.863586.151948 1.858551.592278 2.882141 1.3947z" fill="#090909"/><path d="m555.241943 484.299072c.247315-.865082.708008-1.511657 1.440918-2.290161-.227722.748261-.727661 1.628418-1.440918 2.290161z" fill="#0c0c0d"/><path d="m560.094177 478.881042c.165344-.900665.704224-1.816009 1.536133-2.863464-.192139.861511-.677368 1.855133-1.536133 2.863464z" fill="#0c0c0d"/><path d="m562.246521 475.896759c.138428-.891235.638794-1.814239 1.423218-2.880096-.164368.854217-.612854 1.851287-1.423218 2.880096z" fill="#0c0c0d"/><path d="m304.949341 200.720612c-.664154-.427613-1.322083-1.230729-2.08075-2.337372.628479.451568 1.357697 1.206711 2.08075 2.337372z" fill="#040404"/><path d="m16.058863 470.250122c.635294.446594 1.253065 1.261566 1.958597 2.382019-.600199-.46756-1.28816-1.2406-1.958597-2.382019z" fill="#090909"/><path d="m516.852295 171.862198c-.652405-.464859-1.250733-1.306595-1.92273-2.459351.609803.486817 1.293335 1.284653 1.92273 2.459351z" fill="#0b0a0b"/><path d="m341.093994 460.011993c.647675.500977 1.265534 1.395173 1.985535 2.607209-.603668-.526123-1.309509-1.370056-1.985535-2.607209z" fill="#060606"/><path d="m434.896484 88.751801c-.907867-.09684-1.849395-.559655-2.936187-1.318459.870666.120163 1.886627.536324 2.936187 1.318459z" fill="#090909"/><path d="m146.821289 89.120316c-.456558.659187-1.291977 1.278648-2.436523 1.989227.479782-.61557 1.268707-1.322258 2.436523-1.989227z" fill="#0e0e0e"/><path d="m494.969971 141.699677c-.672394-.416123-1.348847-1.208893-2.136414-2.300232.636719.442123 1.384552 1.182861 2.136414 2.300232z" fill="#0b0a0b"/><path d="m421.115845 134.109772c.904022.156585 1.825409.686233 2.878784 1.509704-.865845-.182998-1.863617-.65982-2.878784-1.509704z" fill="#0c0c0d"/><path d="m159.262329 134.964844c.432404-.648606 1.234665-1.294251 2.341416-2.023529-.454194.619751-1.212891 1.323105-2.341416 2.023529z" fill="#0c0c0d"/><path d="m162.2314 132.924133c.433853-.658844 1.240295-1.295196 2.355865-2.006378-.455002.626389-1.219147 1.327622-2.355865 2.006378z" fill="#0c0c0d"/><path d="m155.243073 137.957977c.433425-.668182 1.245239-1.329361 2.363006-2.092514-.45755.631851-1.221084 1.365692-2.363006 2.092514z" fill="#0c0c0d"/><path d="m475.072144 189.239532c.652801.432221 1.285308 1.236191 2.002502 2.345734-.617828-.454269-1.320343-1.214126-2.002502-2.345734z" fill="#0f0f0f"/><path d="m499.960876 147.731323c-.698181-.409927-1.394958-1.204193-2.202026-2.302948.66095.436554 1.43216 1.177567 2.202026 2.302948z" fill="#0b0a0b"/><path d="m367.944641 253.726166c-.689026-.416107-1.365845-1.215241-2.164673-2.312775.644318.444306 1.410584 1.187012 2.164673 2.312775z" fill="#060606"/><path d="m409.118652 126.228851c.914276.100701 1.856781.570198 2.941651 1.325028-.876251-.128517-1.894837-.542366-2.941651-1.325028z" fill="#0c0c0d"/><path d="m165.218277 130.917023c.445465-.648011 1.262604-1.269394 2.389023-1.969284-.466263.61296-1.241806 1.304428-2.389023 1.969284z" fill="#0c0c0d"/><path d="m477.086823 192.21701c.649841.444321 1.272979 1.260285 1.971984 2.385895-.615661-.464981-1.307159-1.239608-1.971984-2.385895z" fill="#0f0f0f"/><path d="m24.940018 358.129517c-.200154.876983-.774321 1.764343-1.62793 2.805603.231676-.829132.742796-1.812165 1.62793-2.805603z" fill="#0f0f0f"/><path d="m21.799023 362.093689c-.16519.870331-.693045 1.773376-1.493405 2.83667.195242-.82785.662991-1.815888 1.493405-2.83667z" fill="#0f0f0f"/><path d="m561.958008 364.761841c-.652405-.443482-1.296753-1.262726-2.045654-2.386322.614929.467285 1.33435 1.238922 2.045654 2.386322z" fill="#0c0c0d"/><path d="m18.861427 366.120453c-.136177.931061-.65307 1.889374-1.462892 2.998901.165439-.88974.623808-1.930694 1.462892-2.998901z" fill="#0f0f0f"/><path d="m564.910522 368.922028c-.685852-.463227-1.34436-1.320923-2.100952-2.497101.644104.488525 1.38617 1.295593 2.100952 2.497101z" fill="#0c0c0d"/><path d="m465.9021 111.874054c-.824372-.219276-1.661927-.795097-2.654297-1.636528.777191.249588 1.709137.764793 2.654297 1.636528z" fill="#0b0a0b"/><path d="m473.066406 186.246384c.645508.437927 1.272675 1.245605 1.983979 2.359344-.611359-.459167-1.306855-1.22438-1.983979-2.359344z" fill="#0f0f0f"/><path d="m429.110748 140.124268c.879822.181503 1.778443.733047 2.832337 1.5625-.83432-.212204-1.823944-.702317-2.832337-1.5625z" fill="#0c0c0d"/><path d="m406.073853 124.280869c.902069.106452 1.850738.572357 2.930969 1.330963-.873749-.128716-1.879059-.550118-2.930969-1.330963z" fill="#0c0c0d"/><path d="m423.948059 296.588623c-.535278.265167-1.114166.226685-1.899872-.020325.480866-.233459 1.168579-.258392 1.899872.020325z" fill="#030303"/><path d="m415.034241 296.147156c-.380097.45758-.911347.64508-1.735169.802856.332978-.377441.958527-.725189 1.735169-.802856z" fill="#030303"/><path d="m222.044556 467.423462c.531875-.201355 1.098968-.113922 1.833374.217407-.487854.186432-1.14299.128906-1.833374-.217407z" fill="#040404"/><path d="m231.043884 468.01001c.348435-.497101.850708-.741059 1.650849-.947479-.300431.425231-.898728.812927-1.650849.947479z" fill="#040404"/><path d="m210.832367 302.662292c.613724.576508.813858 1.764832.764465 3.106965-.559036-.729187-.868561-1.612153-.764465-3.106965z" fill="#030303"/><path d="m535.13446 501.108948c.252015-.613526.69397-.9776 1.426514-1.435425-.218445.499176-.727539 1.092041-1.426514 1.435425z" fill="#0f0f0f"/><path d="m210.829117 263.660217c.613815.575165.815597 1.763092.768417 3.105469-.559463-.727905-.869949-1.61029-.768417-3.105469z" fill="#030303"/><path d="m243.014771 259.952332c-.469269-.359772-.690354-.869904-.870057-1.65979.400315.31665.759278.913024.870057 1.65979z" fill="#030303"/><path d="m70.837906 162.940552c.247177.435486.131988.733444-.306175 1.08609-.751534-.15596-1.278672-.404724-1.805809-.653504.616066-.177337 1.232124-.354675 2.111984-.432586z" fill="#0f0f0f"/><path d="m306.371521 512.960449c-.200806-.538513-.106232-1.111053.23053-1.853424.183105.493225.123962 1.156342-.23053 1.853424z" fill="#040404"/><path d="m506.926849 512.664124c.420319-.424256.962189-.552002 1.788117-.633545-.36615.34082-1.016358.635437-1.788117.633545z" fill="#0f0f0f"/><path d="m503.049774 513.456543c.394409-.348633.836945-.41571 1.614411-.434326.032196.551086-.270508 1.053833-.573182 1.556518-.331054-.280151-.662078-.560363-1.041229-1.122192z" fill="#0f0f0f"/><path d="m497.048828 514.455933c.396301-.341797.839844-.403504 1.616638-.407044.025177.551087-.282928 1.044007-.591003 1.536987-.326141-.283264-.652283-.566589-1.025635-1.129943z" fill="#0f0f0f"/><path d="m296.090332 522.088501c.331299-.518677.820313-.792664 1.606689-1.039368-.284759.446228-.866882.865174-1.606689 1.039368z" fill="#040404"/><path d="m102.688606 195.592957c.607514.366317 1.190361.788406 1.737099 1.25299.027321.023224-.258766.415253-.398926.635559-.403648-.38945-.807312-.778915-1.354935-1.464416-.143959-.296036-.01519-.359787.016762-.424133z" fill="#151515"/><path d="m178.21524 304.828247c-.550796-.286774-.869171-.752167-1.267623-1.501129.446624.25177.973342.78717 1.267623 1.501129z" fill="#020101"/><path d="m236.104187 99.027039c.368073-.524575.942154-.777596 1.762482-.962845-.35466.456634-.955551.845512-1.762482.962845z" fill="#0c0c0d"/><path d="m110.830429 116.830414c-.134842.621284-.468025 1.000381-1.028152 1.510216.125312-.496972.477562-1.124688 1.028152-1.510216z" fill="#090909"/><path d="m413.045715 419.362061c.545075-.253998 1.131043-.201966 1.911316.074279-.493957.226715-1.18219.229248-1.911316-.074279z" fill="#030303"/><path d="m422.001221 419.924438c.36557-.476745.885559-.690979 1.699279-.880188-.319152.397583-.932037.770142-1.699279.880188z" fill="#030303"/><path d="m461.778137 328.078033c.288727.512635.243988 1.062623.075318 1.859589-.218872-.442779-.313813-1.132477-.075318-1.859589z" fill="#0f0f0f"/><path d="m403.065979 408.005676c.475708.365753.691406.884674.870636 1.695038-.401184-.319672-.7659-.930786-.870636-1.695038z" fill="#030303"/><path d="m483.821228 128.880676c-.634125-.157181-1.259979-.677475-2.006226-1.484375.591217.182678 1.302857.651963 2.006226 1.484375z" fill="#0b0a0b"/><path d="m212.807739 459.161591c.556656.283813.877136.746856 1.280274 1.495147-.450394-.248443-.983429-.782165-1.280274-1.495147z" fill="#040404"/><path d="m433.852142 308.033508c-.459655-.378967-.647857-.910583-.820221-1.735779.374451.331971.733094.957551.820221 1.735779z" fill="#030303"/><path d="m403.603027 306.04718c.248597.545868.197266 1.131226-.093078 1.894776-.228302-.499634-.21753-1.177491.093078-1.894776z" fill="#030303"/><path d="m74.637894 279.086609c-.269394-.26532-.37957-.657715-.434655-1.057678-.009346-.067902.217881-.168335.335808-.253754.092209.393951.18441.787903.098847 1.311432z" fill="#151515"/><path d="m96.010925 319.744934c-.105484-.160309-.053436-.321869-.001373-.483429.052971.160706.105942.321442.001373.483429z" fill="#151515"/><path d="m80.40593 247.734924c.153312.122223.174774.332123.196228.542008-.109368-.151444-.218728-.302887-.196228-.542008z" fill="#151515"/><path d="m486.186218 207.053284c.225251-.030838.502594.182647.760681.668304-.340606.130844-.570404-.101211-.760681-.668304z" fill="#0f0f0f"/><path d="m404.163452 410.97113c.210938-.019958.490204.21521.766449.73346-.234711.029236-.4664-.224518-.766449-.73346z" fill="#030303"/><path d="m171.937958 75.171074c.027786.222862-.182358.498482-.660187.74456-.123154-.339317.106827-.560066.660187-.74456z" fill="#0e0e0e"/><path d="m12.664612 377.150848c.099192.177338-.000867.491028-.356883.901581-.199488-.229584-.061627-.516937.356883-.901581z" fill="#090909"/><path d="m13.664459 375.15155c.099668.176636-.000357.490265-.355182.903687-.201682-.228668-.064918-.517487.355182-.903687z" fill="#090909"/><path d="m150.151505 411.979401c.218505-.01587.496887.21463.738494.722931-.250717.026367-.46466-.225098-.738494-.722931z" fill="#040404"/><path d="m14.664858 373.151306c.099653.177185-.000311.491211-.355764.903687-.201036-.22937-.063825-.517792.355764-.903687z" fill="#090909"/><path d="m79.472099 250.454254c.051613-.03009-.051613.030075 0 0z" fill="#151515"/><path d="m155.157471 417.333557c.182693-.122894.509353-.049682.940185.273865-.23439.246429-.53453.137085-.940185-.273865z" fill="#0b0a0b"/><path d="m167.98732 77.151398c.025909.221092-.197647.504684-.699982.774818-.035675-.246414.207413-.479362.699982-.774818z" fill="#0e0e0e"/><path d="m392.151489 116.278259c.190338-.122062.525025-.036194.968354.300202-.20221.136268-.513123.022003-.968354-.300202z" fill="#0c0c0d"/><path d="m187.028931 117.796982c-.024857-.226052.197403-.49408.691116-.737091.032974.248382-.205505.471748-.691116.737091z" fill="#0c0c0d"/><path d="m241.307617 459.833313c-.108841-.187073-.0074-.525421.347779-.982849.123321.197845-.007081.514679-.347779.982849z" fill="#030303"/><path d="m125.939125 104.129181c.029434.223152-.175262.514885-.651878.769195-.128556-.348472.101326-.569534.651878-.769195z" fill="#090909"/><path d="m56.714676 187.15155c.121052.18805.037388.520981-.297783.96016-.13665-.200928-.021793-.508103.297783-.96016z" fill="#0f0f0f"/><path d="m233.96965 466.840424c-.017959-.213715.216904-.490937.73317-.753266.027496.239807-.226425.464783-.73317.753266z" fill="#040404"/><path d="m70.853638 327.335571c.936599-.074859 1.785194.187531 2.945297.581238-.161049.445404-.633606.759522-1.660248 1.081268-.725891.005219-.897705.002777-1.069519.000336-.101181-.441864-.202354-.883697-.21553-1.662842z" fill="#111"/><path d="m71.051147 329.250854c.189835-.25.361649-.247558.79068-.22882-.098075.171325-.453384.326294-.79068.22882z" fill="#151515"/></svg>